<svg width="310" height="310" viewBox="0 0 310 310" fill="none" xmlns="http://www.w3.org/2000/svg">
<path d="M205.096 20.026C205.096 20.026 158.187 3.34801 112.139 29.9026C66.092 56.4572 42.8544 109.176 22.9028 151.404C2.95118 193.632 14.4336 236.586 49.5628 256.184C84.692 275.782 108.618 246.884 157.926 245.489C207.235 244.094 220.528 251.1 261.442 223.268C302.355 195.436 309.758 129.648 277.481 80.941C245.204 32.2338 205.096 20.026 205.096 20.026Z" fill="#E0FBFF"/>
<path d="M287.345 132.364C287.345 132.364 287.345 128.879 282.472 124.006C277.599 119.133 274.462 116.343 274.462 116.343C274.462 116.343 272.025 124.353 276.551 129.233C279.881 132.662 283.491 135.806 287.345 138.632V132.364Z" fill="#0076AB"/>
<path d="M280.271 154.113C280.271 154.113 280.271 150.629 275.398 145.756C270.525 140.883 267.387 138.093 267.387 138.093C267.387 138.093 264.951 146.103 269.477 150.976C272.805 154.408 276.416 157.554 280.271 160.382V154.113Z" fill="#0076AB"/>
<path d="M287.06 138.297C287.06 138.297 287.426 134.831 292.789 130.498C298.152 126.164 301.562 123.727 301.562 123.727C301.562 123.727 303.143 131.948 298.127 136.319C294.454 139.379 290.53 142.125 286.397 144.528L287.06 138.297Z" fill="#0076AB"/>
<path d="M278.492 163.978C278.492 163.978 279.223 160.58 285.014 156.86C290.805 153.14 294.45 151.044 294.45 151.044C294.45 151.044 295.151 159.39 289.707 163.209C285.732 165.865 281.54 168.184 277.177 170.14L278.492 163.978Z" fill="#0076AB"/>
<path d="M280.097 191.983C280.097 191.983 280.097 188.499 284.977 183.625C289.856 178.752 292.987 175.962 292.987 175.962C292.987 175.962 295.424 183.973 290.898 188.846C287.566 192.277 283.954 195.423 280.097 198.251V191.983Z" fill="#0076AB"/>
<path d="M280.017 198.815C280.017 198.815 280.513 195.368 276.384 189.85C272.254 184.332 269.564 181.133 269.564 181.133C269.564 181.133 266.017 188.709 269.805 194.153C272.613 198.023 275.74 201.651 279.155 204.997L280.017 198.815Z" fill="#0076AB"/>
<path d="M275.212 219.077C275.212 219.077 275.212 215.593 280.085 210.719C284.958 205.846 288.095 203.056 288.095 203.056C288.095 203.056 290.532 211.067 286.006 215.94C282.676 219.37 279.065 222.516 275.212 225.345V219.077Z" fill="#0076AB"/>
<path d="M278.467 237.46C278.467 237.46 277.586 234.087 281.065 228.16C284.543 222.233 286.874 218.717 286.874 218.717C286.874 218.717 291.264 225.847 288.114 231.737C285.761 235.898 283.065 239.855 280.054 243.567L278.467 237.46Z" fill="#0076AB"/>
<path d="M287.792 131.471C287.539 135.097 287.088 138.707 286.44 142.284C284.512 152.241 279.694 158.664 277.76 167.66C275.826 176.657 281.368 188.238 279.887 199.789C278.405 211.339 273.91 217.769 275.193 225.475C276.477 233.182 283.222 254.057 283.222 254.057" stroke="#263238" stroke-linecap="round" stroke-linejoin="round"/>
<path d="M286.992 140.61L292.249 136.58" stroke="#263238" stroke-linecap="round" stroke-linejoin="round"/>
<path d="M287.24 135.966L285.039 132.054" stroke="#263238" stroke-linecap="round" stroke-linejoin="round"/>
<path d="M278.076 167.245C278.076 167.245 282.472 163.947 286.992 160.648" stroke="#263238" stroke-linecap="round" stroke-linejoin="round"/>
<path d="M280.271 160.382C280.271 160.382 276.607 153.196 272.453 148.428" stroke="#263238" stroke-linecap="round" stroke-linejoin="round"/>
<path d="M280.271 196.937C282.783 192.308 285.953 188.069 289.683 184.351" stroke="#263238" stroke-linecap="round" stroke-linejoin="round"/>
<path d="M279.415 201.822C278.085 198.682 276.494 195.658 274.66 192.783C272.093 188.995 271.727 188.505 271.727 188.505" stroke="#263238" stroke-linecap="round" stroke-linejoin="round"/>
<path d="M275.212 225.475C276.325 222.708 277.649 220.029 279.174 217.465C280.696 215.087 282.413 212.839 284.307 210.744" stroke="#263238" stroke-linecap="round" stroke-linejoin="round"/>
<path d="M280.054 243.505C280.054 243.505 279.539 239.332 281.375 235.792C283.21 232.252 285.281 227.602 286.136 225.773" stroke="#263238" stroke-linecap="round" stroke-linejoin="round"/>
<path d="M255.44 178.889C255.44 178.889 255.062 176.7 257.591 173.116C260.121 169.533 261.783 167.443 261.783 167.443C261.783 167.443 264.182 172.199 261.869 175.751C260.155 178.262 258.233 180.625 256.122 182.813L255.44 178.889Z" fill="#0076AB"/>
<path d="M262.223 191.754C262.223 191.754 261.845 189.571 264.368 185.988C266.891 182.404 268.559 180.315 268.559 180.315C268.559 180.315 270.959 185.07 268.652 188.616C266.936 191.129 265.011 193.494 262.899 195.684L262.223 191.754Z" fill="#0076AB"/>
<path d="M256.258 182.571C256.258 182.571 255.638 180.439 251.819 178.306C248 176.173 245.582 175.014 245.582 175.014C245.582 175.014 245.483 180.339 249.104 182.534C251.74 184.053 254.498 185.349 257.35 186.409L256.258 182.571Z" fill="#0076AB"/>
<path d="M264.405 197.78C264.405 197.78 263.581 195.728 259.544 194.004C255.508 192.281 252.997 191.382 252.997 191.382C252.997 191.382 253.456 196.689 257.288 198.493C260.068 199.728 262.946 200.727 265.893 201.481L264.405 197.78Z" fill="#0076AB"/>
<path d="M266.439 215.487C266.439 215.487 266.061 213.299 262.477 210.775C258.893 208.252 256.618 206.838 256.618 206.838C256.618 206.838 255.961 212.127 259.327 214.694C261.791 216.48 264.397 218.06 267.121 219.418L266.439 215.487Z" fill="#0076AB"/>
<path d="M267.22 219.759C267.22 219.759 266.538 217.651 268.528 213.745C270.518 209.839 271.87 207.545 271.87 207.545C271.87 207.545 274.92 211.885 273.11 215.754C271.771 218.484 270.206 221.098 268.429 223.566L267.22 219.759Z" fill="#0076AB"/>
<path d="M273.352 237.373C273.352 237.373 273.606 235.172 277.041 232.444C280.476 229.716 282.658 228.16 282.658 228.16C282.658 228.16 283.619 233.399 280.401 236.152C278.049 238.079 275.539 239.807 272.899 241.316L273.352 237.373Z" fill="#0076AB"/>
<path d="M272.447 231.942C272.447 231.942 272.068 229.76 268.479 227.23C264.889 224.7 262.626 223.299 262.626 223.299C262.626 223.299 261.969 228.582 265.335 231.148C267.796 232.939 270.403 234.519 273.129 235.873L272.447 231.942Z" fill="#0076AB"/>
<path d="M272.397 243.815C272.397 243.815 272.583 241.602 269.756 238.235C266.929 234.868 265.087 232.94 265.087 232.94C265.087 232.94 263.116 237.9 265.707 241.223C267.636 243.578 269.757 245.768 272.05 247.771L272.397 243.815Z" fill="#0076AB"/>
<path d="M255.049 178.374C255.597 180.62 256.268 182.835 257.058 185.008C259.352 191.047 263.066 194.55 265.255 199.981C267.443 205.412 265.224 213.274 267.406 220.36C269.588 227.447 273.11 230.981 273.141 235.953C273.172 240.926 271.207 254.752 271.207 254.752" stroke="#263238" stroke-linecap="round" stroke-linejoin="round"/>
<path d="M256.537 184.016L252.805 182.057" stroke="#263238" stroke-linecap="round" stroke-linejoin="round"/>
<path d="M255.88 181.133L256.835 178.442" stroke="#263238" stroke-linecap="round" stroke-linejoin="round"/>
<path d="M265.025 199.752C265.025 199.752 261.925 198.158 258.714 196.583" stroke="#263238" stroke-linecap="round" stroke-linejoin="round"/>
<path d="M262.88 195.684C263.795 192.789 265.004 189.995 266.488 187.345" stroke="#263238" stroke-linecap="round" stroke-linejoin="round"/>
<path d="M266.867 218.612C264.791 215.98 262.343 213.664 259.6 211.736" stroke="#263238" stroke-linecap="round" stroke-linejoin="round"/>
<path d="M267.933 221.582C268.43 219.463 269.102 217.389 269.942 215.382C271.138 212.728 271.318 212.381 271.318 212.381" stroke="#263238" stroke-linecap="round" stroke-linejoin="round"/>
<path d="M272.974 239.729C272.974 239.729 275.454 236.697 276.985 235.563C277.913 234.878 278.784 234.119 279.589 233.294" stroke="#263238" stroke-linecap="round" stroke-linejoin="round"/>
<path d="M273.141 235.953C272.14 234.34 271.019 232.804 269.787 231.359C268.573 230.035 267.252 228.814 265.837 227.707" stroke="#263238" stroke-linecap="round" stroke-linejoin="round"/>
<path d="M272.062 247.789C271.935 246.104 271.359 244.484 270.394 243.096C268.863 241.068 267.059 238.384 266.321 237.33" stroke="#263238" stroke-linecap="round" stroke-linejoin="round"/>
<path d="M286.837 283.576H267.549C267.146 283.576 266.759 283.416 266.474 283.131C266.19 282.846 266.03 282.459 266.03 282.057L261.249 252.34H293.142L288.356 282.057C288.356 282.459 288.196 282.846 287.911 283.131C287.626 283.416 287.24 283.576 286.837 283.576Z" fill="#263238" stroke="#263238" stroke-linecap="round" stroke-linejoin="round"/>
<path d="M292.863 256.5H261.243C260.585 256.5 259.955 256.239 259.49 255.774C259.024 255.309 258.763 254.678 258.763 254.02C258.763 253.362 259.024 252.732 259.49 252.267C259.955 251.801 260.585 251.54 261.243 251.54H292.863C293.521 251.54 294.152 251.801 294.617 252.267C295.082 252.732 295.343 253.362 295.343 254.02C295.343 254.678 295.082 255.309 294.617 255.774C294.152 256.239 293.521 256.5 292.863 256.5Z" fill="#263238" stroke="#263238" stroke-linecap="round" stroke-linejoin="round"/>
<path d="M262.502 256.612H285.46" stroke="white" stroke-linecap="round" stroke-linejoin="round"/>
<path d="M287.618 256.612H291.4" stroke="white" stroke-linecap="round" stroke-linejoin="round"/>
<path d="M158.453 111.643C158.453 111.643 156.841 113.255 157.003 114.867C157.164 116.479 170.866 145.34 172.317 147.436C173.767 149.532 177.959 150.176 179.899 149.048C181.84 147.92 189.41 139.86 189.41 139.86L189.032 98.5304C189.032 98.5304 182.317 117.75 180.383 120.85C178.448 123.95 177.475 125.531 177.475 125.531C177.475 125.531 173.135 113.274 171.994 110.856C171.196 109.3 169.964 108.008 168.448 107.136L158.453 111.643Z" fill="#BFBFBF" stroke="#263238" stroke-linecap="round" stroke-linejoin="round"/>
<path d="M192.374 272.8C192.374 272.8 182.695 276.458 179.037 277.76C175.379 279.062 175.596 282.28 176.024 282.925L176.458 283.545H211.091C211.604 281.708 211.528 279.756 210.874 277.965C209.802 274.753 192.374 272.8 192.374 272.8Z" fill="white" stroke="#263238" stroke-linecap="round" stroke-linejoin="round"/>
<path d="M211.42 281.852H175.801C175.78 282.225 175.857 282.597 176.024 282.931L176.458 283.551H211.091C211.27 283 211.38 282.43 211.42 281.852Z" fill="white" stroke="#263238" stroke-linecap="round" stroke-linejoin="round"/>
<path d="M185.058 154.715C185.058 154.715 182.695 178.163 182.695 190.21C182.695 202.256 186.998 226.139 188.275 233.455C189.553 240.771 193.855 263.785 193.855 265.503C193.855 267.22 193.855 269.378 192.566 270.239C192.132 270.506 191.781 270.889 191.553 271.345C191.326 271.801 191.23 272.311 191.276 272.819V274.108C191.276 274.108 201.599 279.273 206.119 279.49C208.123 279.648 210.136 279.648 212.139 279.49C212.139 279.49 211.711 269.805 211.711 265.72C211.711 261.634 211.928 232.376 212.139 227.856C212.35 223.336 213.218 190.855 214.08 181.821C214.942 172.788 217.521 157.3 217.521 157.3L185.901 152.136L185.058 154.715Z" fill="#0076AB" stroke="#263238" stroke-linecap="round" stroke-linejoin="round"/>
<path d="M215.394 272.8C215.394 272.8 205.71 276.458 202.058 277.76C198.406 279.062 198.611 282.28 199.045 282.925L199.473 283.545H234.106C234.619 281.708 234.545 279.757 233.895 277.965C232.816 274.753 215.394 272.8 215.394 272.8Z" fill="white" stroke="#263238" stroke-linecap="round" stroke-linejoin="round"/>
<path d="M234.41 281.852H198.815C198.799 282.225 198.878 282.597 199.045 282.931L199.473 283.551H234.106C234.279 283 234.382 282.429 234.41 281.852Z" fill="white" stroke="#263238" stroke-linecap="round" stroke-linejoin="round"/>
<path d="M203.558 157.511C203.558 157.511 203.775 190.427 203.558 200.105C203.341 209.783 209.138 234.31 210.874 240.12C212.61 245.929 215.605 268.516 215.834 269.595C216.064 270.673 212.61 271.746 212.61 274.108C212.61 276.47 222.072 276.477 222.072 276.477C222.072 276.477 230.894 279.056 231.756 279.056C232.64 279.164 233.506 279.382 234.335 279.707C235.2 276.694 235.706 273.589 235.842 270.456C235.878 266.887 235.37 263.333 234.335 259.916C234.335 259.916 235.414 240.988 234.552 229.803C233.69 218.618 231.322 205.065 231.322 200.973C231.322 196.881 233.69 189.36 234.769 180.966C235.848 172.571 236.27 160.313 236.27 157.734C236.27 155.155 204.03 154.51 204.03 154.51L203.558 157.511Z" fill="#0076AB" stroke="#263238" stroke-linecap="round" stroke-linejoin="round"/>
<path d="M211.736 90.613C211.736 90.613 195.815 93.4092 193.018 93.837C190.222 94.2648 188.48 98.58 187.86 102.226C187.24 105.871 183.557 153.425 185.058 154.715C186.558 156.004 227.007 160.295 231.527 160.524C236.046 160.754 237.553 160.958 237.981 157.728C238.409 154.498 244.981 108.326 246.221 104.117C248.366 96.8068 228.947 92.9566 224.428 91.9026C219.908 90.8486 211.736 90.613 211.736 90.613Z" fill="#BFBFBF" stroke="#263238" stroke-linecap="round" stroke-linejoin="round"/>
<path d="M233.12 94.147C233.12 94.147 225.277 117.707 223.987 121.16C222.698 124.614 222.692 125.457 222.692 125.457L196.236 119.877C196.236 119.877 199.032 106.541 200.105 102.883C201.178 99.2248 203.744 92.0142 203.744 92.0142L201.829 92.3428C201.829 92.3428 195.591 112.35 194.085 117.726C192.578 123.101 185.492 140.306 185.058 145.7C184.624 151.094 182.478 171.083 181.834 184.425C181.189 197.768 182.051 211.742 182.051 211.742C182.051 211.742 207.216 216.473 214.749 216.262C222.282 216.051 227.007 216.045 227.007 216.045C227.007 216.045 226.387 190.445 227.224 182.274C228.061 174.102 230.882 159.036 230.882 159.036L237.764 158.608L237.981 157.747L229.592 157.127C229.592 157.127 225.06 127.398 225.06 126.319V124.62L234.552 94.7422L233.12 94.147Z" fill="#263238" stroke="#263238" stroke-linecap="round" stroke-linejoin="round"/>
<path d="M243.176 176.905C243.176 176.905 238.216 184.004 237.851 185.188C237.485 186.372 238.638 191.307 238.638 192.882C238.638 194.457 240.61 194.463 240.61 194.463C240.61 194.463 239.624 197.024 240.808 198.016C241.992 199.008 247.12 198.803 248.105 197.024C249.091 195.244 253.065 189.137 253.065 186.174C252.953 183.717 252.623 181.275 252.08 178.876L243.176 176.905Z" fill="#828282" stroke="#263238" stroke-linecap="round" stroke-linejoin="round"/>
<path d="M240.61 194.463C240.61 194.463 242.191 193.08 242.191 191.307C242.191 189.534 243.765 186.57 243.765 186.57" stroke="#263238" stroke-linecap="round" stroke-linejoin="round"/>
<path d="M243.573 172.36C243.375 172.949 241.992 177.097 243.176 178.281C244.361 179.465 251.658 180.643 252.445 179.856C253.233 179.068 254.615 174.53 254.615 174.53L243.573 172.36Z" fill="#BFBFBF" stroke="#263238" stroke-linecap="round" stroke-linejoin="round"/>
<path d="M235.085 126.598L242.978 144.745C242.978 144.745 240.411 170.593 241.794 172.763C243.176 174.933 254.423 175.919 256.395 174.536C258.366 173.154 259.749 168.225 260.536 159.346C261.324 150.468 256.984 125.612 255.8 121.464C254.615 117.316 246.76 100.75 244.95 99.3736C243.139 97.9972 239.822 98.3816 238.836 98.7536" fill="#BFBFBF"/>
<path d="M235.085 126.598L242.978 144.745C242.978 144.745 240.411 170.593 241.794 172.763C243.176 174.933 254.423 175.919 256.395 174.536C258.366 173.154 259.749 168.225 260.536 159.346C261.324 150.468 256.984 125.612 255.8 121.464C254.615 117.316 246.76 100.75 244.95 99.3736C243.139 97.9972 239.822 98.3816 238.836 98.7536" stroke="#263238" stroke-linecap="round" stroke-linejoin="round"/>
<path d="M165.447 102.92C165.447 102.92 163.668 95.821 162.093 93.0558C160.518 90.2906 150.059 86.5458 148.874 86.5458C147.69 86.5458 148.087 89.1126 148.087 91.5058C148.087 93.899 148.478 98.0158 151.044 100.775C153.611 103.534 158.143 105.512 158.143 105.512L159.526 108.866L166.631 105.115L165.447 102.92Z" fill="#828282" stroke="#263238" stroke-linecap="round" stroke-linejoin="round"/>
<path d="M161.355 83.9108L161.727 82.2616C161.826 81.8271 161.835 81.3771 161.756 80.9387C161.676 80.5003 161.509 80.0825 161.264 79.7102C161.019 79.338 160.702 79.019 160.331 78.7724C159.96 78.5258 159.542 78.3566 159.104 78.275V78.275C158.368 78.1369 157.607 78.2516 156.944 78.6005C156.281 78.9494 155.756 79.512 155.453 80.197L140.393 114.384" stroke="#263238" stroke-linecap="round" stroke-linejoin="round"/>
<path d="M124.769 111.966C124.85 114.024 125.725 115.972 127.21 117.399C128.695 118.827 130.676 119.625 132.736 119.625C134.796 119.625 136.776 118.827 138.261 117.399C139.747 115.972 140.622 114.024 140.703 111.966H124.769Z" fill="white" stroke="#263238" stroke-linecap="round" stroke-linejoin="round"/>
<path d="M127.348 101.742C127.428 101.117 127.58 100.503 127.801 99.913" stroke="#263238" stroke-linecap="round" stroke-linejoin="round"/>
<path d="M127.1 110.509C128.458 109.845 129.109 107.527 128.545 106.28C128.151 105.477 127.809 104.648 127.522 103.8" stroke="#263238" stroke-linecap="round" stroke-linejoin="round"/>
<path d="M131.979 110.509C133.343 109.845 133.988 107.527 133.43 106.28C132.742 104.761 132.265 103.745 132.19 102.616" stroke="#263238" stroke-linecap="round" stroke-linejoin="round"/>
<path d="M137.132 101.364C137.222 100.87 137.355 100.384 137.528 99.913" stroke="#263238" stroke-linecap="round" stroke-linejoin="round"/>
<path d="M136.846 110.509C138.204 109.845 138.855 107.527 138.291 106.28C137.925 105.524 137.602 104.748 137.324 103.955" stroke="#263238" stroke-linecap="round" stroke-linejoin="round"/>
<path d="M150.449 86.5458C150.449 86.5458 145.322 85.3616 144.931 86.3474C144.541 87.3332 144.534 89.311 145.322 89.9C146.109 90.489 151.441 90.6874 152.03 90.52C152.619 90.3526 154.008 86.8992 150.449 86.5458Z" fill="#828282" stroke="#263238" stroke-linecap="round" stroke-linejoin="round"/>
<path d="M151.726 91.2454C151.726 91.2454 146.599 90.0612 146.202 91.0532C145.805 92.0452 145.805 94.0106 146.599 94.5996C147.393 95.1886 152.712 95.3932 153.307 95.2196C153.903 95.046 155.285 91.5988 151.726 91.2454Z" fill="#828282" stroke="#263238" stroke-linecap="round" stroke-linejoin="round"/>
<path d="M152.21 95.2816C152.21 95.2816 146.952 94.984 146.729 96.0256C146.506 97.0672 146.841 99.0078 147.721 99.4604C148.602 99.913 153.884 99.2 154.43 98.9024C154.975 98.6048 155.775 95.0274 152.21 95.2816Z" fill="#828282" stroke="#263238" stroke-linecap="round" stroke-linejoin="round"/>
<path d="M152.867 99.4976C152.867 99.4976 148.527 99.2496 148.347 100.118C148.168 100.986 148.44 102.598 149.166 102.957C149.891 103.317 154.256 102.74 154.709 102.498C155.161 102.257 155.812 99.2806 152.867 99.4976Z" fill="#828282" stroke="#263238" stroke-linecap="round" stroke-linejoin="round"/>
<path d="M163.866 98.58C163.866 98.58 162.483 90.8858 161.696 89.5094C160.909 88.133 153.803 84.3758 152.396 83.5884C150.989 82.801 148.676 81.8152 148.248 83.1916C148.067 83.8247 148.104 84.5006 148.355 85.1095C148.606 85.7184 149.056 86.2245 149.631 86.5458C150.815 87.3394 153.772 88.5174 153.772 89.1126C153.772 89.7078 155.353 96.2116 158.732 98.58" fill="#828282"/>
<path d="M163.866 98.58C163.866 98.58 162.483 90.8858 161.696 89.5094C160.909 88.133 153.803 84.3758 152.396 83.5884C150.989 82.801 148.676 81.8152 148.248 83.1916C148.067 83.8247 148.104 84.5006 148.355 85.1095C148.606 85.7184 149.056 86.2245 149.631 86.5458C150.815 87.3394 153.772 88.5174 153.772 89.1126C153.772 89.7078 155.353 96.2116 158.732 98.58" stroke="#263238" stroke-linecap="round" stroke-linejoin="round"/>
<path d="M166.191 103.1C166.191 103.1 156.358 108.097 157.003 109.387C157.464 110.47 157.789 111.608 157.97 112.772C157.97 112.772 168.287 108.097 168.448 107.13C168.609 106.163 167.319 103.745 166.191 103.1Z" fill="#BFBFBF" stroke="#263238" stroke-linecap="round" stroke-linejoin="round"/>
<path d="M208.078 84.8036C208.078 84.8036 207.006 94.4818 207.006 98.5676C207.006 102.653 208.32 109.74 216.467 106.962C224.614 104.185 227.007 94.054 227.007 92.0824C227.007 90.1108 227.869 75.733 227.869 75.733C227.869 75.733 222.059 81.9764 217.329 83.4768C214.335 84.4055 211.212 84.8533 208.078 84.8036Z" fill="white" stroke="#263238" stroke-linecap="round" stroke-linejoin="round"/>
<path d="M217.329 83.5078C214.333 84.426 211.211 84.8634 208.078 84.8036C208.078 84.8036 207.898 86.4404 207.681 88.6476C209.783 89.776 212.641 90.1294 214.83 90.2472C220.608 90.5758 224.502 84.94 227.583 80.662C227.745 77.9154 227.869 75.764 227.869 75.764C227.869 75.764 222.059 82.0074 217.329 83.5078Z" fill="#263238" stroke="#263238" stroke-linecap="round" stroke-linejoin="round"/>
<path d="M205.908 54.1942C205.908 54.1942 208.419 46.4876 211.228 43.6542C214.036 40.8208 230.665 40.3806 232.965 42.4142C235.265 44.4478 237.305 48.794 237.82 52.3714C238.334 55.9488 234.242 64.1514 234.242 64.1514L205.908 54.1942Z" fill="#263238" stroke="#263238" stroke-linecap="round" stroke-linejoin="round"/>
<path d="M205.282 58.7698C205.282 58.7698 203.348 64.5792 203.558 68.6898C203.769 72.8004 204.637 76.8676 204.637 79.4468C204.637 82.026 204.209 84.1836 206.572 86.118C208.667 87.8292 212.226 88.288 214.83 88.4368C220.925 88.7778 224.924 82.4848 228.086 78.1572C228.086 78.1572 234.106 77.5372 234.54 74.0714C234.974 70.6056 233.988 69.0308 233.988 69.0308L234.242 64.1762C234.242 64.1762 214.105 54.2562 205.282 58.7698Z" fill="white" stroke="#263238" stroke-linecap="round" stroke-linejoin="round"/>
<path d="M227.658 64.1514C227.658 64.1514 226.362 70.1716 227.224 70.6056C228.086 71.0396 232.605 69.3098 232.804 67.3754C233.002 65.441 230.64 63.9344 227.658 64.1514Z" fill="#263238" stroke="#263238" stroke-linecap="round" stroke-linejoin="round"/>
<path d="M204.358 59.5572C204.358 59.5572 214.322 61.0886 222.239 63.643C230.156 66.1974 233.988 69.006 233.988 69.006C233.988 69.006 236.542 64.666 236.288 62.3658C236.034 60.0656 225.06 55.9798 216.107 54.1942C207.154 52.4086 205.635 52.6566 204.873 53.6796C204.11 54.7026 203.081 58.5342 204.358 59.5572Z" fill="#263238" stroke="#263238" stroke-linecap="round" stroke-linejoin="round"/>
<path d="M211.519 64.3622C211.519 64.3622 206.144 73.1848 207.433 74.4744C208.723 75.764 211.736 76.6258 212.598 76.198" stroke="#263238" stroke-linecap="round" stroke-linejoin="round"/>
<path d="M207.433 78.3494C207.433 78.3494 218.593 81.5734 220.987 75.5532" stroke="#263238" stroke-linecap="round" stroke-linejoin="round"/>
<path d="M219.263 74.6914L222.493 75.981" stroke="#263238" stroke-linecap="round" stroke-linejoin="round"/>
<path d="M218.296 67.8032C218.83 67.8032 219.263 67.0815 219.263 66.1912C219.263 65.3009 218.83 64.5792 218.296 64.5792C217.762 64.5792 217.329 65.3009 217.329 66.1912C217.329 67.0815 217.762 67.8032 218.296 67.8032Z" fill="#263238"/>
<path d="M209.69 64.0398C209.69 64.9326 209.256 65.658 208.723 65.658C208.19 65.658 207.756 64.9326 207.756 64.0398C207.756 63.147 208.19 62.4278 208.723 62.4278C209.256 62.4278 209.69 63.1532 209.69 64.0398Z" fill="#263238"/>
<path d="M217.329 61.1382C217.329 61.1382 222.704 61.3552 222.493 65.658" stroke="#263238" stroke-linecap="round" stroke-linejoin="round"/>
<path d="M210.23 59.8486C210.23 59.8486 208.94 58.9868 206.144 62" stroke="#263238" stroke-linecap="round" stroke-linejoin="round"/>
<path d="M132.823 196.001H126.734V283.582H132.823V196.001Z" fill="white" stroke="#263238" stroke-linecap="round" stroke-linejoin="round"/>
<path d="M137.039 196.001H130.95V283.582H137.039V196.001Z" fill="#263238" stroke="#263238" stroke-linecap="round" stroke-linejoin="round"/>
<path d="M161.857 196.001H155.769V283.582H161.857V196.001Z" fill="white" stroke="#263238" stroke-linecap="round" stroke-linejoin="round"/>
<path d="M166.073 196.001H159.985V283.582H166.073V196.001Z" fill="#263238" stroke="#263238" stroke-linecap="round" stroke-linejoin="round"/>
<path d="M226.486 196.001H220.398V283.582H226.486V196.001Z" fill="white" stroke="#263238" stroke-linecap="round" stroke-linejoin="round"/>
<path d="M230.702 196.001H224.614V283.582H230.702V196.001Z" fill="#263238" stroke="#263238" stroke-linecap="round" stroke-linejoin="round"/>
<path d="M255.527 196.001H249.438V283.582H255.527V196.001Z" fill="white" stroke="#263238" stroke-linecap="round" stroke-linejoin="round"/>
<path d="M259.737 196.001H253.648V283.582H259.737V196.001Z" fill="#263238" stroke="#263238" stroke-linecap="round" stroke-linejoin="round"/>
<path d="M265.825 192.721H122.983V200.217H265.825V192.721Z" fill="white" stroke="#263238" stroke-linecap="round" stroke-linejoin="round"/>
<path d="M265.831 192.721H226.957V200.217H265.831V192.721Z" fill="#263238" stroke="#263238" stroke-linecap="round" stroke-linejoin="round"/>
<path d="M268.169 190.848H118.302V194.593H268.169V190.848Z" fill="white" stroke="#263238" stroke-linecap="round" stroke-linejoin="round"/>
<path d="M268.169 190.848H230.702V194.593H268.169V190.848Z" fill="#263238" stroke="#263238" stroke-linecap="round" stroke-linejoin="round"/>
<path d="M183.464 156.159H173.482V152.787H183.464C183.895 152.787 184.308 152.958 184.613 153.262C184.917 153.567 185.089 153.98 185.089 154.411V154.566C185.081 154.991 184.906 155.397 184.602 155.695C184.298 155.993 183.89 156.16 183.464 156.159Z" fill="white" stroke="#263238" stroke-linecap="round" stroke-linejoin="round"/>
<path d="M132.203 146.078H179.323V185.808C179.323 187.123 178.8 188.385 177.87 189.315C176.94 190.245 175.678 190.768 174.363 190.768H137.163C135.847 190.768 134.586 190.245 133.655 189.315C132.725 188.385 132.203 187.123 132.203 185.808V146.078Z" fill="white" stroke="#263238" stroke-linecap="round" stroke-linejoin="round"/>
<path d="M173.687 146.078V185.609C173.687 186.974 173.145 188.283 172.18 189.248C171.214 190.213 169.906 190.755 168.541 190.755H172.36C173.724 190.754 175.032 190.211 175.997 189.246C176.962 188.282 177.504 186.974 177.506 185.609V146.078H173.687Z" fill="#263238" stroke="#263238" stroke-linecap="round" stroke-linejoin="round"/>
<path d="M139.5 146.078V185.609C139.5 188.449 143.623 190.755 146.463 190.755H142.668C141.303 190.755 139.993 190.213 139.027 189.249C138.061 188.284 137.518 186.975 137.516 185.609V146.078H139.5Z" fill="#263238" stroke="#263238" stroke-linecap="round" stroke-linejoin="round"/>
<path d="M178.994 144.435H132.519C131.43 144.435 130.547 145.318 130.547 146.407V146.562C130.547 147.651 131.43 148.533 132.519 148.533H178.994C180.083 148.533 180.966 147.651 180.966 146.562V146.407C180.966 145.318 180.083 144.435 178.994 144.435Z" fill="white" stroke="#263238" stroke-linecap="round" stroke-linejoin="round"/>
<path d="M126.362 152.787H136.344V156.159H126.362C125.931 156.159 125.518 155.988 125.214 155.684C124.909 155.379 124.738 154.966 124.738 154.535V154.38C124.746 153.955 124.921 153.549 125.224 153.251C125.528 152.953 125.937 152.787 126.362 152.787Z" fill="white" stroke="#263238" stroke-linecap="round" stroke-linejoin="round"/>
<path d="M132.165 152.787H142.147V156.159H132.165C131.952 156.159 131.741 156.117 131.544 156.036C131.347 155.954 131.168 155.834 131.017 155.684C130.866 155.533 130.746 155.354 130.665 155.157C130.583 154.96 130.541 154.748 130.541 154.535V154.38C130.549 153.955 130.724 153.549 131.028 153.251C131.331 152.953 131.74 152.787 132.165 152.787Z" fill="white" stroke="#263238" stroke-linecap="round" stroke-linejoin="round"/>
<path d="M179.174 147.089H132.333V147.721H179.174V147.089Z" fill="#263238" stroke="#263238" stroke-linecap="round" stroke-linejoin="round"/>
<path d="M156.482 130.684C155.583 129.586 154.529 128.669 154.529 126.523C154.497 125.396 154.874 124.295 155.589 123.423" stroke="#263238" stroke-linecap="round" stroke-linejoin="round"/>
<path d="M154.529 141.484C154.529 137.764 157.728 137.764 157.728 134.007C157.73 133.56 157.676 133.114 157.567 132.68" stroke="#263238" stroke-linecap="round" stroke-linejoin="round"/>
<path d="M166.055 127.559C165.82 126.924 165.706 126.251 165.72 125.575" stroke="#263238" stroke-linecap="round" stroke-linejoin="round"/>
<path d="M165.72 141.484C165.72 137.51 168.913 137.51 168.913 133.529C168.913 131.31 167.921 130.33 167.053 129.189" stroke="#263238" stroke-linecap="round" stroke-linejoin="round"/>
<path d="M141.744 127.143C141.677 126.782 141.644 126.414 141.645 126.046C141.635 125.412 141.74 124.782 141.955 124.186" stroke="#263238" stroke-linecap="round" stroke-linejoin="round"/>
<path d="M141.645 141.484C141.645 137.628 144.844 137.628 144.844 133.771C144.848 133.062 144.712 132.358 144.443 131.702C144.173 131.045 143.777 130.448 143.276 129.946" stroke="#263238" stroke-linecap="round" stroke-linejoin="round"/>
<path d="M247.957 156.159H237.975V152.787H247.957C248.387 152.787 248.801 152.958 249.105 153.262C249.41 153.567 249.581 153.98 249.581 154.411V154.566C249.573 154.991 249.398 155.397 249.094 155.695C248.791 155.993 248.382 156.16 247.957 156.159Z" fill="white" stroke="#263238" stroke-linecap="round" stroke-linejoin="round"/>
<path d="M196.701 146.078H243.821V185.808C243.821 187.123 243.299 188.385 242.368 189.315C241.438 190.245 240.177 190.768 238.861 190.768H201.661C200.346 190.768 199.084 190.245 198.154 189.315C197.224 188.385 196.701 187.123 196.701 185.808V146.078Z" fill="white" stroke="#263238" stroke-linecap="round" stroke-linejoin="round"/>
<path d="M238.185 146.078V185.609C238.184 186.975 237.64 188.284 236.674 189.249C235.708 190.213 234.399 190.755 233.033 190.755H236.84C238.205 190.755 239.514 190.213 240.479 189.248C241.444 188.283 241.986 186.974 241.986 185.609V146.078H238.185Z" fill="#263238" stroke="#263238" stroke-linecap="round" stroke-linejoin="round"/>
<path d="M203.98 146.078V185.609C203.98 188.449 208.097 190.755 210.943 190.755H207.142C205.778 190.754 204.47 190.211 203.505 189.246C202.54 188.282 201.998 186.974 201.996 185.609V146.078H203.98Z" fill="#263238" stroke="#263238" stroke-linecap="round" stroke-linejoin="round"/>
<path d="M243.486 144.435H197.011C195.922 144.435 195.04 145.318 195.04 146.407V146.562C195.04 147.651 195.922 148.533 197.011 148.533H243.486C244.575 148.533 245.458 147.651 245.458 146.562V146.407C245.458 145.318 244.575 144.435 243.486 144.435Z" fill="white" stroke="#263238" stroke-linecap="round" stroke-linejoin="round"/>
<path d="M190.855 152.787H200.837V156.159H190.855C190.424 156.159 190.011 155.988 189.706 155.684C189.401 155.379 189.23 154.966 189.23 154.535V154.38C189.238 153.955 189.413 153.549 189.717 153.251C190.021 152.953 190.429 152.787 190.855 152.787Z" fill="white" stroke="#263238" stroke-linecap="round" stroke-linejoin="round"/>
<path d="M196.658 152.787H206.64V156.159H196.658C196.227 156.159 195.814 155.988 195.509 155.684C195.205 155.379 195.033 154.966 195.033 154.535V154.38C195.042 153.955 195.216 153.549 195.52 153.251C195.824 152.953 196.232 152.787 196.658 152.787Z" fill="white" stroke="#263238" stroke-linecap="round" stroke-linejoin="round"/>
<path d="M243.672 147.089H196.831V147.721H243.672V147.089Z" fill="#263238" stroke="#263238" stroke-linecap="round" stroke-linejoin="round"/>
<path d="M220.36 136.45H220.286C219.731 136.45 219.282 136.899 219.282 137.454V140.312C219.282 140.867 219.731 141.317 220.286 141.317H220.36C220.915 141.317 221.365 140.867 221.365 140.312V137.454C221.365 136.899 220.915 136.45 220.36 136.45Z" fill="#5C5C5C" stroke="#263238" stroke-linecap="round" stroke-linejoin="round"/>
<path d="M197.086 144.46L199.094 143.059C201.468 141.397 204.294 140.505 207.192 140.504H233.604C237.26 140.504 240.774 141.922 243.406 144.46H197.086Z" fill="#5C5C5C" stroke="#263238" stroke-linecap="round" stroke-linejoin="round"/>
<path d="M76.6692 109.424C76.6692 109.424 79.2422 113.832 80.3396 116.399C81.437 118.966 82.9126 122.276 81.4432 121.539C79.9738 120.801 78.5044 119.889 77.221 119.889C75.9376 119.889 75.5718 121.359 75.02 120.255C74.4682 119.152 76.6692 109.424 76.6692 109.424Z" fill="#0076AB" stroke="#263238" stroke-linecap="round" stroke-linejoin="round"/>
<path d="M72.819 267.66C72.819 267.66 81.6292 272.8 84.94 273.904C88.2508 275.007 90.4456 277.004 90.6254 279.043L90.8114 281.058L90.6254 282.528H50.4184C49.807 281.011 49.4954 279.389 49.5008 277.754C49.5008 275.001 50.9702 274.449 51.708 272.794C52.4458 271.138 70.06 266.377 70.06 266.377L72.819 267.66Z" fill="#0076AB" stroke="#263238" stroke-linecap="round" stroke-linejoin="round"/>
<path d="M49.8852 280.86C50.019 281.423 50.1973 281.974 50.4184 282.509H90.6192L90.8052 281.04L90.6192 279.025C90.4394 277.004 88.2384 274.982 84.9338 273.885V280.86H49.8852Z" fill="white" stroke="#263238" stroke-linecap="round" stroke-linejoin="round"/>
<path d="M82.7266 180.098C82.7266 180.098 84.0162 182.299 82.9126 183.198C81.809 184.097 81.2572 184.487 81.2572 184.487C82.0209 186.024 82.2164 187.781 81.809 189.447C81.0774 192.02 77.7728 202.845 77.7728 207.985C77.7728 213.125 78.1386 225.792 76.1174 232.953C74.0962 240.114 70.06 255.713 70.6118 259.203C71.1636 262.694 73.1848 264.343 73.5506 265.261C73.8625 266.397 73.986 267.576 73.9164 268.751C73.9164 269.849 70.06 274.809 63.6368 277.19C57.2136 279.57 51.8568 279.949 50.6168 279.577C49.3768 279.205 48.05 277.01 48.2298 275.175C48.4096 273.339 48.98 272.986 48.98 271.696C48.98 270.407 46.0412 257.932 46.407 250.957C46.7728 243.982 52.6504 233.331 52.6504 228.191C52.6504 223.051 50.7904 214.061 49.3458 208.735C47.9012 203.41 47.4858 202.312 47.4858 201.76C47.4858 201.209 45.4646 196.986 44.1812 193.496C42.8978 190.005 41.0812 186.707 41.0812 183.036C41.1056 180.58 41.2899 178.128 41.633 175.696L43.2884 171.473C43.2884 171.473 81.282 176.793 81.8338 176.793C82.3856 176.793 82.7266 180.098 82.7266 180.098Z" fill="#263238" stroke="#263238" stroke-linecap="round" stroke-linejoin="round"/>
<path d="M85.9692 163.203C85.9692 163.203 95.6598 158.36 97.2346 156.655C98.8094 154.95 97.2346 151.026 97.7554 151.026C98.2761 151.026 101.42 149.718 101.686 148.546C101.953 147.374 101.42 145.402 101.947 145.402C102.474 145.402 108.494 143.964 110.85 144.094C113.206 144.224 119.493 144.485 121.588 141.478C123.684 138.471 125.24 135.842 125.24 135.055C125.24 134.267 124.62 134.044 123.287 134.943C121.954 135.842 110.968 136.102 107.954 136.102C104.941 136.102 103.769 135.706 102.455 136.722C101.141 137.739 96.1743 142.749 95.5171 142.749C94.8599 142.749 92.7705 142.488 91.5925 143.797C90.66 143.195 89.5551 142.919 88.4492 143.009C86.8744 143.27 79.6761 147.2 79.6761 147.2L85.9692 163.203Z" fill="#9E9E9E" stroke="#263238" stroke-linecap="round" stroke-linejoin="round"/>
<path d="M76.3034 117.316C76.4642 117.548 76.6132 117.789 76.7498 118.036C77.9418 120.205 78.7236 122.576 79.0562 125.029C79.794 129.989 80.1598 139.165 81.809 145.588C83.4582 152.012 89.5218 161.739 88.629 169.818C87.7362 177.897 85.3244 180.463 81.1022 180.649C76.88 180.835 47.3246 174.592 42.9226 173.309C38.5206 172.025 37.5968 172.757 37.9626 168.535C38.3284 164.312 42.9226 149.073 43.1024 143.567C43.2822 138.062 39.246 125.947 44.9624 117.137C50.6788 108.326 56.8974 102.449 60.3818 103.187C63.8662 103.924 73.9164 110.893 76.3034 117.316Z" fill="white" stroke="#263238" stroke-linecap="round" stroke-linejoin="round"/>
<path d="M67.859 63.3516C67.859 63.3516 74.2822 60.5988 79.422 61.3304C84.5618 62.062 89.7016 66.1044 90.8052 68.8572C91.9088 71.61 92.8264 72.8934 92.8264 74.7286C92.8264 76.5638 92.8264 77.1156 92.6404 77.6674L92.4606 78.2192C92.4606 78.2192 94.3206 82.6274 94.4756 84.0906C94.6306 85.5538 94.4756 86.2978 93.1922 86.2978H91.9088C91.9088 86.2978 90.2534 97.309 88.8088 98.5924C87.3642 99.8758 82.9374 100.062 82.9374 100.062C82.9374 100.062 78.7152 101.922 77.7976 107.775C76.88 113.627 75.7764 120.441 75.7764 120.441C75.7764 120.441 66.4144 103.366 65.317 99.696C64.2196 96.0256 63.6616 93.4526 63.6616 93.4526C64.7105 91.7257 65.347 89.7802 65.5216 87.7672C65.7076 84.6672 61.6652 78.0332 62.7688 71.796C63.8724 65.5588 67.859 63.3516 67.859 63.3516Z" fill="#999999" stroke="#263238" stroke-linecap="round" stroke-linejoin="round"/>
<path d="M88.7839 98.58C89.9247 97.588 91.1709 90.7494 91.6793 87.7238C90.4827 86.8124 84.9089 85.932 82.7265 87.017C80.5441 88.102 78.1385 89.9558 77.7666 89.404C77.3946 88.8522 75.64 80.6 76.911 79.1368C78.182 77.6736 81.3191 77.6612 80.5814 75.2742C79.8435 72.8872 76.6692 74.183 76.4894 72.1742C76.3096 70.1654 78.3494 68.3178 75.9376 67.7722C74.2795 67.4796 72.5747 67.6053 70.9776 68.138C70.432 68.138 69.3284 67.4002 69.3284 65.565C69.3291 65.0807 69.1649 64.6106 68.8629 64.232C68.5609 63.8534 68.1391 63.5888 67.6668 63.4818C66.8546 64.0088 63.6802 66.3772 62.7068 71.8084C61.6032 78.0456 65.6456 84.6548 65.4596 87.7796C65.3102 89.6298 64.7669 91.4266 63.8662 93.0496C64.7147 93.423 65.6627 93.5058 66.5632 93.2852C68.4232 92.7334 68.2124 91.0842 68.7642 89.7946C69.316 88.505 71.1512 88.1454 70.2336 85.7584C69.316 83.3714 71.703 80.7984 72.8004 80.9844C73.8977 81.1704 75.0075 83.0056 74.4557 84.0844C73.9039 85.1632 72.5957 90.5076 72.5957 93.2604C72.5957 96.0132 73.3274 98.4002 74.9828 99.3178C76.6382 100.235 78.9322 101.06 80.5627 101.798C81.2163 101.091 81.9912 100.508 82.8506 100.074C82.8506 100.074 87.3207 99.882 88.7839 98.58Z" fill="#263238" stroke="#263238" stroke-linecap="round" stroke-linejoin="round"/>
<path d="M89.3358 78.9508C89.3358 79.6638 89.0878 80.2404 88.784 80.2404C88.4802 80.2404 88.2384 79.6638 88.2384 78.9508C88.2384 78.2378 88.4802 77.6674 88.784 77.6674C89.0878 77.6674 89.3358 78.244 89.3358 78.9508Z" fill="#263238"/>
<path d="M86.0312 75.64C86.9667 75.116 87.9509 74.6841 88.97 74.3504C89.8876 74.1706 91.357 74.9022 91.171 73.4328C90.985 71.9634 89.156 72.5152 86.9488 73.067C84.7416 73.6188 84.7478 74.9146 86.0312 75.64Z" fill="white" stroke="#263238" stroke-linecap="round" stroke-linejoin="round"/>
<path d="M83.6442 78.585C84.2245 78.921 84.8513 79.1697 85.5042 79.3228" stroke="#263238" stroke-linecap="round" stroke-linejoin="round"/>
<path d="M85.4794 80.0544C85.1643 80.2783 84.8024 80.4276 84.421 80.491C84.0397 80.5544 83.649 80.5302 83.2784 80.4202" stroke="#263238" stroke-linecap="round" stroke-linejoin="round"/>
<path d="M82.9188 71.7836C82.9188 71.7836 85.7646 69.5082 89.3234 70.0786" stroke="#263238" stroke-linecap="round" stroke-linejoin="round"/>
<path d="M84.4812 68.2C84.4812 68.2 88.04 67.208 89.6086 68.2" stroke="#263238" stroke-linecap="round" stroke-linejoin="round"/>
<path d="M71.1636 66.6562C70.6118 66.6562 69.5144 65.9184 69.5144 64.0832C69.5144 62.248 67.3072 61.1506 65.658 62.6138C64.0088 64.077 64.3746 65.0008 62.7192 65.3666C61.0638 65.7324 57.5794 64.635 57.0276 68.1256C56.4758 71.6162 57.2136 72.5276 56.4758 73.4452C55.738 74.3628 51.8878 76.0182 52.0738 79.1368C52.2598 82.2554 54.4608 82.2368 53.723 84.0968C52.9852 85.9568 51.1562 88.319 53.909 90.1542C56.6618 91.9894 61.2498 88.1392 61.8016 89.6086C62.3534 91.078 64.9016 92.3614 66.7616 91.8096C68.6216 91.2578 68.417 89.6086 68.9688 88.319C69.5206 87.0294 71.3558 86.6698 70.4382 84.2828C69.5206 81.8958 71.9014 79.3228 73.005 79.5088C74.1086 79.6948 75.206 81.53 74.6604 82.6088C74.1148 83.6876 72.8004 89.032 72.8004 91.7848C72.8004 94.5376 73.532 96.9246 75.1812 97.8422C76.8304 98.7598 79.4034 99.7022 81.0588 100.415C82.7142 101.128 87.8478 103.348 89.5032 101.878C91.1586 100.409 92.07 96.9184 92.07 93.62C92.07 90.3216 92.9876 87.1968 91.8902 86.2792C90.7928 85.3616 85.0702 84.4192 82.894 85.5414C80.7178 86.6636 78.306 88.4802 77.934 87.9284C77.562 87.3766 76.2786 81.5052 77.562 80.0358C78.8454 78.5664 81.9702 76.7312 81.2324 74.3442C80.4946 71.9572 76.8304 72.695 76.6444 70.6738C76.4584 68.6526 78.5044 66.8174 76.0926 66.2718C74.4431 65.9896 72.7494 66.1217 71.1636 66.6562Z" fill="white" stroke="#263238" stroke-linecap="round" stroke-linejoin="round"/>
<path d="M84.382 88.133C84.9301 88.9538 85.7166 89.587 86.6356 89.9473C87.5545 90.3075 88.5618 90.3776 89.5218 90.148" stroke="#263238" stroke-linecap="round" stroke-linejoin="round"/>
<path d="M74.9456 82.0322C74.9456 82.0322 74.6604 79.4716 71.5294 79.0438C68.3984 78.616 68.1132 83.7372 69.3966 86.1614C70.68 88.5856 72.385 87.296 72.385 87.296" fill="#999999"/>
<path d="M74.9456 82.0322C74.9456 82.0322 74.6604 79.4716 71.5294 79.0438C68.3984 78.616 68.1132 83.7372 69.3966 86.1614C70.68 88.5856 72.385 87.296 72.385 87.296" stroke="#263238" stroke-linecap="round" stroke-linejoin="round"/>
<path d="M63.271 91.6174C63.271 91.6174 69.8802 107.037 71.7154 111.079C73.5506 115.122 76.3034 118.054 76.3034 122.09C76.3034 126.127 77.9588 134.943 77.9588 143.753C77.9588 152.563 80.1598 165.23 79.422 170.184C78.6842 175.138 76.88 178.814 76.88 180.835C76.88 182.857 77.0598 185.795 76.1422 185.795C75.2246 185.795 62.0124 184.878 52.2784 182.491C42.5444 180.104 36.859 179 36.859 177.531C36.859 176.061 37.4108 173.309 37.4108 172.571C37.4108 171.833 35.2098 170.37 36.3134 165.416C37.417 160.462 38.5144 145.037 38.8802 134.025C39.246 123.014 43.6542 113.28 46.593 108.872C49.5318 104.464 54.653 101.351 54.653 101.351C54.653 101.351 51.7204 97.8608 55.2048 95.6598C57.7854 94.1065 60.4821 92.755 63.271 91.6174Z" fill="#0076AB" stroke="#263238" stroke-linecap="round" stroke-linejoin="round"/>
<path d="M39.4072 172.503C50.4167 177.221 62.255 179.702 74.2326 179.8" stroke="#263238" stroke-linecap="round" stroke-linejoin="round"/>
<path d="M43.5922 174.164L42.842 179.205" stroke="#263238" stroke-linecap="round" stroke-linejoin="round"/>
<path d="M49.135 176.433L48.3786 180.463" stroke="#263238" stroke-linecap="round" stroke-linejoin="round"/>
<path d="M55.18 177.94L54.6778 181.97" stroke="#263238" stroke-linecap="round" stroke-linejoin="round"/>
<path d="M60.7228 178.951L60.4686 182.478" stroke="#263238" stroke-linecap="round" stroke-linejoin="round"/>
<path d="M67.0157 179.707V183.483" stroke="#263238" stroke-linecap="round" stroke-linejoin="round"/>
<path d="M71.7154 111.079C69.8554 107.037 63.271 91.6174 63.271 91.6174C60.4843 92.7553 57.7896 94.1068 55.211 95.6598C51.7266 97.8608 54.6592 101.351 54.6592 101.351C54.6592 101.351 60.9026 110.527 62.9238 114.75C64.945 118.972 64.3932 118.054 66.2284 120.993C68.0636 123.932 68.9812 126.313 69.533 125.395C70.0848 124.477 74.6728 120.069 75.7702 120.435C75.9004 120.478 76.0368 120.516 76.1856 120.553C75.5966 117.267 73.3088 114.588 71.7154 111.079Z" fill="#0076AB" stroke="#263238" stroke-linecap="round" stroke-linejoin="round"/>
<path d="M96.8625 129.983H131.583C131.583 129.983 128.644 133.839 125.891 135.495C123.138 137.15 119.468 137.355 119.468 137.355H110.261C110.261 137.355 102.92 137.144 96.8625 129.983Z" fill="#0076AB" stroke="#263238" stroke-linecap="round" stroke-linejoin="round"/>
<path d="M95.759 139.531C97.3074 138.171 98.6118 136.557 99.6154 134.757C100.125 133.695 100.869 132.764 101.792 132.032C102.714 131.301 103.791 130.789 104.941 130.535C106.801 130.169 112.834 129.617 113.937 129.065C115.041 128.514 115.797 131.087 115.221 132.004C114.644 132.922 112.282 133.653 110.813 133.864C109.861 134.038 109.01 134.563 108.426 135.334C109.255 135.974 110.185 136.47 111.178 136.803C112.834 137.355 115.773 137.535 117.056 136.803C118.339 136.071 122.927 132.761 123.299 134.943C123.671 137.125 121.644 138.043 120.54 139.345C119.437 140.647 117.44 143.015 116.69 143.201C115.94 143.387 110.081 143.387 106.411 143.753C102.74 144.119 98.3506 146.692 98.3506 146.692L95.046 139.531H95.759Z" fill="#999999" stroke="#263238" stroke-linecap="round" stroke-linejoin="round"/>
<path d="M88.97 142.284C88.97 142.284 94.8414 138.427 95.759 139.531C96.6766 140.635 101.085 145.402 99.9812 147.424C98.8776 149.445 91.7228 152.749 91.7228 152.749L88.97 142.284Z" fill="#0076AB" stroke="#263238" stroke-linecap="round" stroke-linejoin="round"/>
<path d="M61.2498 114.936C61.2498 114.936 65.472 119.524 67.1274 123.746C68.7828 127.968 72.633 139.866 73.1848 140.814C73.7366 141.763 74.6542 143.387 74.6542 143.387C74.6542 143.387 84.196 140.814 86.2172 140.635C88.2384 140.455 90.2534 142.284 91.5368 144.671C92.8202 147.058 97.0486 154.213 95.2134 156.054C93.3782 157.895 77.407 166.16 72.633 167.983C67.859 169.806 63.085 168.714 60.853 164.883C58.621 161.051 49.29 139.736 47.4548 134.776C45.6196 129.816 45.7994 125.779 46.5372 124.31" fill="#0076AB"/>
<path d="M61.2498 114.936C61.2498 114.936 65.472 119.524 67.1274 123.746C68.7828 127.968 72.633 139.866 73.1848 140.814C73.7366 141.763 74.6542 143.387 74.6542 143.387C74.6542 143.387 84.196 140.814 86.2172 140.635C88.2384 140.455 90.2534 142.284 91.5368 144.671C92.8202 147.058 97.0486 154.213 95.2134 156.054C93.3782 157.895 77.407 166.16 72.633 167.983C67.859 169.806 63.085 168.714 60.853 164.883C58.621 161.051 49.29 139.736 47.4548 134.776C45.6196 129.816 45.7994 125.779 46.5372 124.31" stroke="#263238" stroke-linecap="round" stroke-linejoin="round"/>
<path d="M67.8589 155.502C68.7765 149.625 74.6789 143.387 74.6789 143.387C74.6789 143.387 68.0697 146.692 65.8625 149.445" stroke="#263238" stroke-linecap="round" stroke-linejoin="round"/>
<path d="M18.5938 283.576H301.723" stroke="#263238" stroke-linecap="round" stroke-linejoin="round"/>
</svg>
